<svg xmlns="http://www.w3.org/2000/svg" width="2100" height="1080.8" viewBox="0 0 3000 1544">
  <defs>
    <style>
      .cls-1 {
        fill: #ffe28b;
      }

      .cls-1, .cls-2, .cls-3 {
        fill-rule: evenodd;
      }

      .cls-2 {
        fill: #ffd24a;
      }

      .cls-3 {
        fill: #ffc000;
      }
    </style>
  </defs>
  <path class="cls-1" d="M2337.54,93.336l478.18,359.151c31.1,23.361,31.1,61.236,0,84.6L1596.95,1452.47c-31.1,23.36-81.53,23.36-112.63,0l-478.19-359.15c-31.1-23.36-31.1-61.24,0-84.6L2224.9,93.336C2256.01,69.976,2306.43,69.976,2337.54,93.336Z"/>
  <path id="Rectangle_1_copy" data-name="Rectangle 1 copy" class="cls-2" d="M1902.03,93.336l478.18,359.151c31.1,23.361,31.1,61.236,0,84.6L1161.44,1452.47c-31.1,23.36-81.53,23.36-112.64,0L570.622,1093.32c-31.1-23.36-31.1-61.24,0-84.6L1789.39,93.336C1820.49,69.976,1870.92,69.976,1902.03,93.336Z"/>
  <path id="Rectangle_1_copy_2" data-name="Rectangle 1 copy 2" class="cls-3" d="M1515.64,93.336l478.19,359.151c31.1,23.361,31.1,61.236,0,84.6L775.057,1452.47c-31.1,23.36-81.532,23.36-112.635,0L184.239,1093.32c-31.1-23.36-31.1-61.24,0-84.6L1403.01,93.336C1434.11,69.976,1484.54,69.976,1515.64,93.336Z"/>
</svg>
