<svg xmlns="http://www.w3.org/2000/svg" width="2025.9" height="1350.9" viewBox="0 0 2251 1501">
  <defs>
    <style>
      .cls-1 {
        fill: #ffe28b;
      }

      .cls-1, .cls-2, .cls-3 {
        fill-rule: evenodd;
      }

      .cls-2 {
        fill: #ffd24a;
      }

      .cls-3 {
        fill: #ffc000;
      }
    </style>
  </defs>
  <path class="cls-1" d="M1829.47,18.866l401.91,386.666a62.693,62.693,0,0,1,0,91.079L1207,1482.13c-26.14,25.15-68.53,25.15-94.67,0L710.415,1095.46a62.691,62.691,0,0,1,0-91.08L1734.8,18.866C1760.94-6.284,1803.32-6.284,1829.47,18.866Z"/>
  <path id="Rectangle_1_copy" data-name="Rectangle 1 copy" class="cls-2" d="M1463.42,18.866l401.91,386.666a62.693,62.693,0,0,1,0,91.079L840.952,1482.13c-26.142,25.15-68.528,25.15-94.67,0L344.367,1095.46a62.691,62.691,0,0,1,0-91.08L1368.75,18.866C1394.89-6.284,1437.28-6.284,1463.42,18.866Z"/>
  <path id="Rectangle_1_copy_2" data-name="Rectangle 1 copy 2" class="cls-3" d="M1138.66,18.866l401.92,386.666a62.693,62.693,0,0,1,0,91.079L516.2,1482.13c-26.142,25.15-68.528,25.15-94.67,0L19.611,1095.46a62.69,62.69,0,0,1,0-91.08L1043.99,18.866C1070.13-6.284,1112.52-6.284,1138.66,18.866Z"/>
</svg>
